<svg xmlns="http://www.w3.org/2000/svg" viewBox="0 0 227.67 362.07"><defs><style>.cls-1{fill:#fff;}.cls-2{fill:#ff5b2b;}</style></defs><g id="Capa_2" data-name="Capa 2"><g id="Capa_1-2" data-name="Capa 1"><path class="cls-1" d="M21.09,310.09c0,4.43-3.73,7.06-10.59,7.06-5.75,0-10.07-1.78-10.5-6.23,0-.45.3-.67.7-.67H6a.62.62,0,0,1,.68.4C7,311.33,8,312,10.61,312c2.27,0,3.64-.54,3.64-1.88S12.75,308.38,10,308c-3.68-.49-9.57-1.1-9.57-6.94,0-4.52,3.55-7.17,10.07-7.17,5.26,0,9.73,1.73,10.14,6,0,.45-.3.67-.7.67H14.64a.66.66,0,0,1-.68-.4c-.33-.59-1.53-1.17-3.57-1.17s-3.15.4-3.15,1.84S8.34,302.67,11,303C14.5,303.48,21.09,304.07,21.09,310.09Z"/><path class="cls-1" d="M45.3,307.6l-13.56,0c.41,2.72,2.95,4.12,6.19,4.12a11.34,11.34,0,0,0,4.49-.95c.85-.4,1.26-.31,2.27.95s1.17,1.88.34,2.74a11.37,11.37,0,0,1-7.94,2.72c-7.28,0-12-4.77-12-11.64s4.67-11.62,11.57-11.62,10.91,4.69,10.91,11.28C47.55,306.81,47.25,307.6,45.3,307.6ZM32,303.1H41.3c-.5-2.36-2.27-3.3-4.59-3.33S32.58,300.76,32,303.1Z"/><path class="cls-1" d="M74.09,305.6c0,6.47-3.57,11.55-9.17,11.55a6.6,6.6,0,0,1-6.72-4.7h-.65l-.43,3.46c0,.41-.22.68-.62.68h-5a.64.64,0,0,1-.68-.68V285.79a.64.64,0,0,1,.68-.67h5.66a.64.64,0,0,1,.68.67V296c1-1.17,2.74-2.06,5.62-2.06C70.18,293.89,74.09,298.9,74.09,305.6Zm-6.83-.09c0-3.24-2-5.13-4.85-5.13s-4.75,1.89-4.75,5.13,1.89,5.14,4.75,5.14S67.26,308.74,67.26,305.51Z"/><path class="cls-1" d="M99.56,313.57v1c0,2-1.64,2.36-3,2.36-2.43,0-4.79-1.16-4.79-4.13v-.11h-.59c-.58,2-2.36,4.47-6.65,4.47H83.36c-4.09,0-7.13-2.18-7.13-6.77,0-3.89,2.18-6.18,7.24-6.52l7.55-.49v-.92c0-2.41-.79-3-3.55-3-2.43,0-3.33.5-3.57,1.71-.05.25-.21.43-.61.43H78a.63.63,0,0,1-.69-.67c0-5.24,4.42-7,10.4-7,7.51,0,10.21,2.76,10.21,9v6.29c0,1.91.31,2.16.81,2.63A1.94,1.94,0,0,1,99.56,313.57Zm-13-1.61c2.36,0,4.47-1.28,4.47-3.64v-.81l-5.93.47c-1.49.13-2,.92-2,1.93s.52,2,2.88,2Z"/><path class="cls-1" d="M124.13,310.09c0,4.43-3.73,7.06-10.58,7.06-5.76,0-10.07-1.78-10.5-6.23,0-.45.29-.67.7-.67H109a.62.62,0,0,1,.67.4c.32.68,1.33,1.37,4,1.37,2.27,0,3.64-.54,3.64-1.88s-1.51-1.76-4.27-2.14c-3.69-.49-9.57-1.1-9.57-6.94,0-4.52,3.55-7.17,10.06-7.17,5.26,0,9.74,1.73,10.14,6,0,.45-.29.67-.7.67h-5.28a.66.66,0,0,1-.67-.4c-.34-.59-1.53-1.17-3.58-1.17-1.88,0-3.14.4-3.14,1.84s1.1,1.82,3.75,2.16C117.55,303.48,124.13,304.07,124.13,310.09Z"/><path class="cls-1" d="M151,313.49a10.25,10.25,0,0,1-8.27,3.66c-3.8,0-9.06-1.69-9.06-9.35v-7.69h-6.18a.65.65,0,0,1-.67-.67v-4.21a.65.65,0,0,1,.67-.67h6.18v-6.29a.64.64,0,0,1,.68-.68h5.66a.64.64,0,0,1,.67.68v6.29H149a.64.64,0,0,1,.68.67v4.21a.64.64,0,0,1-.68.67h-8.25v6.7c0,3.3,1.89,4.11,3.53,4.11a5.71,5.71,0,0,0,3.67-1.44c.69-.58,1-.56,2.29.77C151.83,311.87,151.65,312.63,151,313.49Z"/><path class="cls-1" d="M175,311a.64.64,0,0,1,.68.67v4.27a.64.64,0,0,1-.68.68h-6c-4.72,0-7.26-2.77-7.26-7.49V300h-6.36a.64.64,0,0,1-.68-.67V295a.63.63,0,0,1,.68-.67H168a.63.63,0,0,1,.67.67v12.68c0,2.22,1,3.28,3.24,3.28Zm-13.71-25a3.76,3.76,0,1,1,3.76,3.75A3.77,3.77,0,0,1,161.29,286Z"/><path class="cls-1" d="M202.61,313.57v1c0,2-1.64,2.36-3.06,2.36-2.42,0-4.79-1.16-4.79-4.13v-.11h-.58c-.58,2-2.36,4.47-6.65,4.47H186.4c-4.09,0-7.12-2.18-7.12-6.77,0-3.89,2.18-6.18,7.24-6.52l7.55-.49v-.92c0-2.41-.79-3-3.55-3-2.43,0-3.33.5-3.58,1.71,0,.25-.2.43-.6.43H181a.64.64,0,0,1-.7-.67c0-5.24,4.43-7,10.41-7,7.51,0,10.2,2.76,10.2,9v6.29c0,1.91.32,2.16.81,2.63A1.93,1.93,0,0,1,202.61,313.57Zm-13-1.61c2.36,0,4.47-1.28,4.47-3.64v-.81l-5.94.47c-1.48.13-2,.92-2,1.93s.52,2,2.88,2Zm-.86-22.41c-.49,0-.76-.27-.54-.77l2.7-5.66a.75.75,0,0,1,.76-.54h5.13c.49,0,.76.27.54.76l-2.7,5.67a.75.75,0,0,1-.76.54Z"/><path class="cls-1" d="M227.63,303.46v12.45a.64.64,0,0,1-.68.68h-5.66a.64.64,0,0,1-.67-.68V304.83c0-2.81-1.38-4.45-4-4.45s-4,1.64-4,4.45v11.08a.64.64,0,0,1-.68.68h-5.66a.64.64,0,0,1-.67-.68V295a.63.63,0,0,1,.67-.67h5.48a.64.64,0,0,1,.68.67l.18,3.26h.85a6.74,6.74,0,0,1,6.48-4.38C224.62,293.89,227.63,297.55,227.63,303.46Z"/><path class="cls-1" d="M53,359c-.49,0-.76-.27-.54-.77l16.25-36.72a.76.76,0,0,1,.77-.5h1.7c.5,0,.7.36.5.81L55.44,358.48a.85.85,0,0,1-.81.54Z"/><path class="cls-1" d="M97.59,330.92a.64.64,0,0,1,.67.68v20.47c0,7.82-5.53,10-11.33,10a16.32,16.32,0,0,1-7.24-1.46.69.69,0,0,1-.33-.94l.33-.94a.57.57,0,0,1,.79-.36,15.32,15.32,0,0,0,6.25,1.16c5.37,0,9-1.7,9-7.68v-4.41H95c-1,2.77-4,4.61-7.89,4.61-6.11,0-10.4-4.65-10.4-10.79S81,330.47,87.22,330.47a9.61,9.61,0,0,1,8.43,4.43l.11-3.3c0-.41.27-.68.68-.68Zm-1.85,10.3a8.18,8.18,0,1,0-8.22,8.31A8,8,0,0,0,95.74,341.22Z"/><path class="cls-1" d="M124.63,352.27v.27c0,.63-.77,1-1.58,1-1.66,0-2.54-1.44-2.54-3.53v-.89c-1.32,2.94-4.89,4.63-9.1,4.63h-1c-5,0-7.29-2.77-7.29-6.41,0-3.44,2.05-6,6.54-6.29l10.5-.7v-1.8c0-4.13-1.75-5.62-6.58-5.62-3.8,0-6.25.92-6.5,3.85a.59.59,0,0,1-.67.56H105a.57.57,0,0,1-.63-.68c.32-4.45,3.62-6.18,9.17-6.18,7.44,0,9.35,3.19,9.35,7.73v10.43c0,1.55.18,2.32.92,2.63S124.63,351.8,124.63,352.27Zm-12.81-1c3.84,0,8.29-1.48,8.29-6.22v-2.43l-9.6.65c-3.84.27-4.72,2.05-4.72,4,0,2.52,1.53,4,5.17,4Z"/><path class="cls-1" d="M149.67,337.69c0,1.35-.31,1.89-1.17,1.89h-.76a.64.64,0,0,1-.72-.68c-.07-4.16-2.86-5.89-6.32-5.89-4.79,0-7.71,3.33-7.71,8V352.5a.64.64,0,0,1-.67.67H130.9a.64.64,0,0,1-.67-.67V331.6a.64.64,0,0,1,.67-.68h1.24a.66.66,0,0,1,.67.68l.18,3.48h.36c1.4-3.1,4.5-4.61,8-4.61C146.07,330.47,149.67,333.19,149.67,337.69Z"/><path class="cls-1" d="M173.07,347.64a.57.57,0,0,1,.9-.15l.88.63a.59.59,0,0,1,.2.92,10.87,10.87,0,0,1-9.28,4.7c-6.68,0-11.4-4.95-11.4-11.65s4.72-11.62,11.4-11.62a10.81,10.81,0,0,1,9.28,4.7.59.59,0,0,1-.2.92l-.88.63a.57.57,0,0,1-.9-.16,8.91,8.91,0,0,0-7.26-3.55c-5,0-8.74,3.67-8.74,9.08s3.75,9.11,8.74,9.11A8.92,8.92,0,0,0,173.07,347.64Z"/><path class="cls-1" d="M200.25,350.59a.64.64,0,0,1,.67.67v1.24a.64.64,0,0,1-.67.67h-4.86c-3.66,0-5.61-2.18-5.61-5.86v-13.8h-8.16a.64.64,0,0,1-.68-.68V331.6a.64.64,0,0,1,.68-.68h10.25a.64.64,0,0,1,.67.68v15.53c0,2.27,1.19,3.46,3.46,3.46Zm-9.91-24.07c-.5,0-.77-.27-.54-.77l2.7-5.66a.73.73,0,0,1,.76-.54h.88c.49,0,.76.27.53.76L192,326a.76.76,0,0,1-.77.54Z"/><path class="cls-1" d="M227.67,352.27v.27c0,.63-.76,1-1.57,1-1.66,0-2.54-1.44-2.54-3.53v-.89c-1.33,2.94-4.9,4.63-9.1,4.63H213.4c-5,0-7.28-2.77-7.28-6.41,0-3.44,2-6,6.54-6.29l10.5-.7v-1.8c0-4.13-1.76-5.62-6.59-5.62-3.8,0-6.25.92-6.49,3.85a.59.59,0,0,1-.68.56H208a.57.57,0,0,1-.63-.68c.31-4.45,3.62-6.18,9.17-6.18,7.44,0,9.35,3.19,9.35,7.73v10.43c0,1.55.18,2.32.92,2.63S227.67,351.8,227.67,352.27Zm-12.81-1c3.85,0,8.3-1.48,8.3-6.22v-2.43l-9.6.65c-3.84.27-4.72,2.05-4.72,4,0,2.52,1.53,4,5.17,4Z"/><path class="cls-2" d="M183.35,51.57,172.49,76a33.32,33.32,0,0,1,5.45-.38h30.33L219,51.57Zm-3.64,56.87c-4.59,0-8.32,2.15-9.61,5.45A48.09,48.09,0,0,1,178.37,141c0,.67,0,1.34,0,2l15.35-34.54Z"/><path class="cls-2" d="M163.93,175.41l-32.39,72.8H96l25.74-57.92c1.1,0,2.25.09,3.4.09C140.63,190.38,154.31,184.74,163.93,175.41Z"/><path class="cls-1" d="M100.83,237.16h0l.19-.52A2,2,0,0,1,100.83,237.16ZM191,236.09c-2.88-10.08-8.32-19.32-17.33-25.29a46,46,0,0,0-22.29-7.17L139,231.57l-2.68,6h4.3c5.75,0,11.75,2.6,13.63,8.4a35.93,35.93,0,0,1,1.78,9.06v5.22l37.64.14c.44,0-.12-8.57-.16-9.22A70.78,70.78,0,0,0,191,236.09Z"/><path class="cls-2" d="M51.76,112.75l-6.94,15.64a41.23,41.23,0,0,0,8.9,1c9.18,0,15.54-2.58,15.54-7.41C69.26,116.81,61.94,114.85,51.76,112.75Zm3.06,44a77.53,77.53,0,0,1-21.34-2.87l-19,42.86H50.08l18.27-41.14A77.14,77.14,0,0,1,54.82,156.71ZM101.84,0,64.77,83.42c10.09,2,22,4.93,30.18,12.34L137.48,0Z"/><path class="cls-1" d="M177.94,75.63a33.32,33.32,0,0,0-5.45.38c-12.72,1.63-22.05,9-25.11,19.75a61.26,61.26,0,0,0-22.29-4.16,58.28,58.28,0,0,0-27.65,6.65A32.49,32.49,0,0,0,95,95.76c-8.13-7.41-20.09-10.38-30.18-12.34-.63-.09-1.25-.24-1.87-.33C52.62,80.89,45,79.17,45,73.9c0-4.59,6.08-6.55,13.54-6.55A52.05,52.05,0,0,1,71.18,69c.33-.77,8.66-19.57,10.71-24.16.15-.29.24-.58.34-.81a75.76,75.76,0,0,0-25-4c-26,0-47.4,12-47.4,36.69,0,26.69,24.06,32.14,41.28,35.87l.67.15c10.18,2.1,17.5,4.06,17.5,9.23,0,4.83-6.36,7.41-15.54,7.41a41.23,41.23,0,0,1-8.9-1,74.11,74.11,0,0,1-27.65-12.73L6.31,140.11a79.41,79.41,0,0,0,27.17,13.73,77.53,77.53,0,0,0,21.34,2.87,77.14,77.14,0,0,0,13.53-1.15c1.73-.29,3.45-.62,5.07-1.05a47.94,47.94,0,0,0,12.73,21.23c-9.62,5.89-15.74,17.7-15.74,29.71,0,17.22,11.91,29.37,30.42,31.71.1-.19,14.83-33.34,15-33.67h-1.25c-5.21,0-8.7-2.82-8.7-7a8.83,8.83,0,0,1,5-7.65,81,81,0,0,0,10.81,1.44c1.1,0,2.25.09,3.4.09,15.54,0,29.22-5.64,38.84-15A47.38,47.38,0,0,0,178.33,143c0-.67,0-1.34,0-2a48.09,48.09,0,0,0-8.27-27.08c1.29-3.3,5-5.45,9.61-5.45h14l14.59-32.81Zm-52.85,81.31c-9.86,0-17.08-6.79-17.08-16S115.23,125,125.09,125c9.61,0,16.79,6.79,16.79,15.93S134.7,156.94,125.09,156.94Z"/></g></g></svg>