<svg xmlns="http://www.w3.org/2000/svg" viewBox="0 0 212.67 260.41"><defs><style>.cls-1{fill:#ff5b2b;}.cls-2{fill:#191919;}</style></defs><g id="Capa_2" data-name="Capa 2"><g id="Capa_1-2" data-name="Capa 1"><path class="cls-1" d="M177,51.57,166.18,76a33.24,33.24,0,0,1,5.45-.38H202l10.71-24.06Zm-3.63,56.87c-4.59,0-8.32,2.15-9.62,5.45A48,48,0,0,1,172.06,141c0,.67,0,1.34-.05,2l15.36-34.54Z"/><path class="cls-1" d="M157.62,175.41l-32.39,72.8H89.64l25.74-57.92c1.1,0,2.24.09,3.39.09C134.32,190.38,148,184.74,157.62,175.41Z"/><path class="cls-2" d="M94.52,237.16h0l.19-.52A2.42,2.42,0,0,1,94.52,237.16Zm90.14-1.07c-2.88-10.08-8.32-19.32-17.34-25.29A45.94,45.94,0,0,0,145,203.63l-12.39,27.94-2.67,6h4.3c5.74,0,11.75,2.6,13.62,8.4a35.07,35.07,0,0,1,1.78,9.06v5.22l37.65.14c.43,0-.12-8.57-.16-9.22A70.78,70.78,0,0,0,184.66,236.09Z"/><path class="cls-1" d="M45.44,112.75l-6.93,15.64a41.14,41.14,0,0,0,8.89,1c9.19,0,15.55-2.58,15.55-7.41C63,116.81,55.63,114.85,45.44,112.75Zm3.06,44a77.51,77.51,0,0,1-21.33-2.87l-19,42.86H43.77L62,155.56A77.25,77.25,0,0,1,48.5,156.71ZM95.52,0,58.45,83.42c10.1,2,22.06,4.93,30.19,12.34L131.16,0Z"/><path class="cls-2" d="M171.63,75.63a33.24,33.24,0,0,0-5.45.38c-12.73,1.63-22.06,9-25.12,19.75a61.18,61.18,0,0,0-22.29-4.16,58.31,58.31,0,0,0-27.65,6.65,30.69,30.69,0,0,0-2.48-2.49c-8.13-7.41-20.09-10.38-30.19-12.34-.62-.09-1.24-.24-1.86-.33C46.3,80.89,38.7,79.17,38.7,73.9c0-4.59,6.07-6.55,13.53-6.55A51.93,51.93,0,0,1,64.86,69c.34-.77,8.66-19.57,10.72-24.16.14-.29.24-.58.33-.81a75.67,75.67,0,0,0-25-4c-26,0-47.4,12-47.4,36.69,0,26.69,24.06,32.14,41.28,35.87l.67.15C55.63,114.85,63,116.81,63,122c0,4.83-6.36,7.41-15.55,7.41a41.14,41.14,0,0,1-8.89-1,74,74,0,0,1-27.65-12.73L0,140.11a79.32,79.32,0,0,0,27.17,13.73,77.51,77.51,0,0,0,21.33,2.87A77.25,77.25,0,0,0,62,155.56c1.72-.29,3.45-.62,5.07-1.05a47.94,47.94,0,0,0,12.73,21.23c-9.62,5.89-15.74,17.7-15.74,29.71,0,17.22,11.91,29.37,30.42,31.71.1-.19,14.83-33.34,15-33.67h-1.24c-5.21,0-8.71-2.82-8.71-7a8.85,8.85,0,0,1,5-7.65,80.77,80.77,0,0,0,10.81,1.44c1.1,0,2.24.09,3.39.09,15.55,0,29.23-5.64,38.85-15A47.37,47.37,0,0,0,172,143c.05-.67.05-1.34.05-2a48,48,0,0,0-8.28-27.08c1.3-3.3,5-5.45,9.62-5.45h14L202,75.63Zm-52.86,81.31c-9.85,0-17.08-6.79-17.08-16S108.92,125,118.77,125c9.62,0,16.79,6.79,16.79,15.93S128.39,156.94,118.77,156.94Z"/></g></g></svg>