<?xml version="1.0" standalone="no"?>
<!DOCTYPE svg PUBLIC "-//W3C//DTD SVG 20010904//EN"
 "http://www.w3.org/TR/2001/REC-SVG-20010904/DTD/svg10.dtd">
<svg version="1.0" xmlns="http://www.w3.org/2000/svg"
 width="782.000000pt" height="782.000000pt" viewBox="0 0 782.000000 782.000000"
 preserveAspectRatio="xMidYMid meet">
<metadata>
Created by potrace 1.14, written by Peter Selinger 2001-2017
</metadata>
<g transform="translate(0.000000,782.000000) scale(0.100000,-0.100000)"
fill="#000000" stroke="none">
<path d="M3535 7688 c-32 -73 -73 -164 -91 -203 -53 -117 -71 -157 -102 -230
-46 -108 -333 -749 -336 -753 -2 -1 -23 4 -47 12 -88 30 -234 63 -309 72 -25
3 -51 7 -58 9 -52 18 -422 26 -557 12 -140 -14 -163 -17 -288 -47 -452 -105
-766 -370 -871 -734 -14 -46 -28 -110 -33 -143 -9 -74 -10 -261 0 -333 57
-415 357 -688 922 -839 122 -32 291 -71 310 -71 10 0 15 -5 12 -12 -14 -34
-200 -453 -203 -457 -5 -6 -163 38 -254 70 -132 48 -342 153 -465 234 l-112
73 -64 -142 c-34 -77 -75 -168 -90 -201 -15 -33 -59 -134 -99 -224 l-73 -165
29 -23 c28 -23 120 -87 156 -108 211 -127 319 -179 496 -241 68 -23 125 -44
127 -46 2 -2 -124 -289 -279 -638 -155 -349 -279 -637 -275 -640 6 -4 1038 -5
1061 -1 4 0 10 11 14 23 3 12 22 56 41 97 39 86 39 85 123 276 34 77 75 169
91 204 17 35 37 82 46 105 9 22 20 46 24 51 4 6 16 33 27 60 17 42 54 127 92
210 6 11 27 61 49 110 40 90 40 90 87 102 104 27 101 28 134 -65 57 -162 169
-348 294 -486 l53 -60 -57 -43 c-155 -116 -283 -294 -346 -483 -14 -41 -27
-83 -29 -93 -3 -10 -6 -26 -9 -35 -20 -65 -28 -299 -14 -393 53 -363 310 -643
693 -754 48 -14 112 -28 142 -31 59 -7 69 -15 53 -41 -12 -22 -130 -292 -130
-298 0 -3 240 -5 534 -5 l533 0 43 97 c23 54 56 126 72 161 l28 63 95 -2 c167
-3 277 -42 361 -125 80 -81 126 -236 128 -431 l1 -123 25 0 c14 -1 269 -2 567
-3 480 -2 542 -1 546 13 2 8 3 42 1 75 -5 129 -14 281 -19 310 -3 17 -7 46
-10 65 -28 198 -74 353 -152 520 -188 397 -518 639 -966 706 -21 3 -46 7 -55
9 -9 2 -29 4 -43 4 -26 1 -25 5 133 359 88 196 170 383 183 414 14 35 48 85
86 128 218 244 351 542 374 842 6 71 17 100 176 460 93 210 183 411 199 446
17 35 30 65 30 67 0 2 11 28 24 57 40 90 60 133 211 473 81 182 155 348 165
370 10 22 90 203 178 401 89 199 170 381 181 405 44 98 60 139 53 140 -9 1
-972 1 -1027 0 -38 -1 -41 -3 -59 -49 -11 -26 -34 -78 -52 -117 -18 -38 -82
-182 -143 -319 l-109 -249 -34 -4 c-51 -5 -157 -33 -213 -55 -231 -93 -392
-244 -476 -446 -17 -42 -32 -78 -34 -80 -1 -1 -22 5 -46 13 -112 40 -272 79
-380 92 -83 10 -395 10 -479 0 -166 -21 -378 -82 -519 -151 l-69 -34 -36 37
-36 37 46 104 c25 58 59 133 75 168 16 35 29 65 29 68 0 2 18 42 40 89 22 47
40 87 40 89 0 3 15 37 34 78 18 40 59 132 91 203 31 72 70 158 86 193 16 35
29 65 29 68 0 2 18 42 40 89 22 47 40 87 40 90 0 2 18 43 40 90 22 47 40 88
40 90 0 2 16 38 36 82 20 43 42 92 49 108 75 170 221 499 236 532 10 23 61
138 113 255 52 118 106 238 119 268 71 157 87 194 87 201 0 5 -240 9 -533 9
l-533 0 -59 -132z m-981 -1917 c59 -11 110 -22 113 -24 2 -3 -26 -71 -63 -153
-36 -82 -75 -169 -86 -194 -31 -72 -34 -75 -64 -76 -42 0 -350 80 -415 109
-106 47 -159 117 -145 192 16 85 115 145 266 161 30 4 56 8 58 9 10 9 246 -8
336 -24z m1836 -1715 c463 -73 553 -705 128 -895 -81 -36 -115 -44 -217 -46
-113 -3 -200 18 -291 71 -247 145 -304 483 -118 706 69 83 194 152 301 164 29
4 53 7 55 9 5 4 95 -2 142 -9z m-440 -1921 c8 -2 40 -6 70 -10 30 -3 64 -7 75
-9 11 -3 37 -5 57 -5 l36 -1 -54 -122 c-30 -68 -61 -137 -69 -153 -7 -17 -23
-51 -34 -77 l-20 -46 -53 4 c-112 9 -193 55 -224 130 -41 98 3 219 105 287 24
16 59 17 111 2z"/>
</g>
</svg>
